# xmcd
#
# Track frame offsets:
#	150
#	17625
#	33975
#	46200
#	60075
#	75075
#	87975
#	105075
#	118050
#	132675
#
# Disc length: 1977 seconds
#
# Revision: 1
# Processed by: cddbd v1.5.2PL0 Copyright (c) Steve Scherf et al.
# Submitted via: audiograbber 1.83.01
#
DISCID=6a07b70a
DTITLE=Maureen Thompson - The Very Best Is You
DYEAR=1900
DGENRE=
TTITLE0=Who Were You Thinking of When We were Making Love
TTITLE1=Crazy Arms
TTITLE2=No Its Not Love
TTITLE3=57 Chevy
TTITLE4=Walk A Little Slow
TTITLE5=Youve Got Me Right Where You Want Me
TTITLE6=Sweet Dreams
TTITLE7=The Very Best Is You
TTITLE8=Sweetest Gift
TTITLE9=The Bed You Made For Me
EXTD=
EXTT0=
EXTT1=
EXTT2=
EXTT3=
EXTT4=
EXTT5=
EXTT6=
EXTT7=
EXTT8=
EXTT9=
PLAYORDER=
